<mxfile host="app.diagrams.net" modified="2023-02-26T20:23:55.870Z" agent="5.0 (Windows NT 10.0; Win64; x64) AppleWebKit/537.36 (KHTML, like Gecko) Chrome/110.0.0.0 Safari/537.36" etag="fWGYfpoZvEwTSIuKmbjz" version="20.8.23" type="github" pages="2">
  <diagram name="Page-1" id="xHp4eKEVADgUohLVxKDE">
    <mxGraphModel dx="993" dy="538" grid="1" gridSize="10" guides="1" tooltips="1" connect="1" arrows="1" fold="1" page="1" pageScale="1" pageWidth="850" pageHeight="1100" math="0" shadow="0">
      <root>
        <mxCell id="0" />
        <mxCell id="1" parent="0" />
        <mxCell id="fRoc2haszYNnfgWTT0E0-3" value="" style="ellipse;whiteSpace=wrap;html=1;aspect=fixed;strokeColor=#000000;fillColor=#000000;" vertex="1" parent="1">
          <mxGeometry x="50" y="175" width="20" height="20" as="geometry" />
        </mxCell>
        <mxCell id="fRoc2haszYNnfgWTT0E0-4" value="" style="endArrow=classic;html=1;rounded=0;exitX=1;exitY=0.5;exitDx=0;exitDy=0;" edge="1" parent="1" source="fRoc2haszYNnfgWTT0E0-3">
          <mxGeometry width="50" height="50" relative="1" as="geometry">
            <mxPoint x="80" y="155" as="sourcePoint" />
            <mxPoint x="160" y="185" as="targetPoint" />
          </mxGeometry>
        </mxCell>
        <mxCell id="fRoc2haszYNnfgWTT0E0-6" value="logging in" style="rounded=1;whiteSpace=wrap;html=1;strokeColor=#000000;fillColor=#FFFFFF;" vertex="1" parent="1">
          <mxGeometry x="160" y="160" width="120" height="50" as="geometry" />
        </mxCell>
        <mxCell id="fRoc2haszYNnfgWTT0E0-9" value="" style="endArrow=classic;html=1;rounded=0;" edge="1" parent="1">
          <mxGeometry width="50" height="50" relative="1" as="geometry">
            <mxPoint x="280" y="185" as="sourcePoint" />
            <mxPoint x="400" y="185" as="targetPoint" />
          </mxGeometry>
        </mxCell>
        <mxCell id="fRoc2haszYNnfgWTT0E0-11" value="logged in successfully" style="edgeLabel;html=1;align=center;verticalAlign=middle;resizable=0;points=[];" vertex="1" connectable="0" parent="fRoc2haszYNnfgWTT0E0-9">
          <mxGeometry x="-0.1889" y="-2" relative="1" as="geometry">
            <mxPoint x="11" y="-12" as="offset" />
          </mxGeometry>
        </mxCell>
        <mxCell id="fRoc2haszYNnfgWTT0E0-10" value="viewing violations" style="rounded=1;whiteSpace=wrap;html=1;strokeColor=#000000;fillColor=#FFFFFF;" vertex="1" parent="1">
          <mxGeometry x="400" y="165" width="120" height="50" as="geometry" />
        </mxCell>
        <mxCell id="fRoc2haszYNnfgWTT0E0-12" value="violations listed" style="rounded=1;whiteSpace=wrap;html=1;strokeColor=#000000;fillColor=#FFFFFF;" vertex="1" parent="1">
          <mxGeometry x="640" y="160" width="120" height="50" as="geometry" />
        </mxCell>
        <mxCell id="fRoc2haszYNnfgWTT0E0-13" value="" style="endArrow=classic;html=1;rounded=0;exitX=1;exitY=0.5;exitDx=0;exitDy=0;" edge="1" parent="1">
          <mxGeometry width="50" height="50" relative="1" as="geometry">
            <mxPoint x="520" y="184.5" as="sourcePoint" />
            <mxPoint x="640" y="184.5" as="targetPoint" />
          </mxGeometry>
        </mxCell>
        <mxCell id="fRoc2haszYNnfgWTT0E0-14" value="request records" style="edgeLabel;html=1;align=center;verticalAlign=middle;resizable=0;points=[];" vertex="1" connectable="0" parent="fRoc2haszYNnfgWTT0E0-13">
          <mxGeometry x="-0.1889" y="-2" relative="1" as="geometry">
            <mxPoint x="1" y="-11" as="offset" />
          </mxGeometry>
        </mxCell>
        <mxCell id="fRoc2haszYNnfgWTT0E0-15" value="" style="endArrow=classic;html=1;rounded=0;entryX=0.5;entryY=0;entryDx=0;entryDy=0;exitX=0.5;exitY=1;exitDx=0;exitDy=0;" edge="1" parent="1" target="fRoc2haszYNnfgWTT0E0-19">
          <mxGeometry width="50" height="50" relative="1" as="geometry">
            <mxPoint x="700" y="210" as="sourcePoint" />
            <mxPoint x="700" y="275" as="targetPoint" />
            <Array as="points">
              <mxPoint x="700" y="245" />
            </Array>
          </mxGeometry>
        </mxCell>
        <mxCell id="fRoc2haszYNnfgWTT0E0-24" value="[violations available]" style="edgeLabel;html=1;align=center;verticalAlign=middle;resizable=0;points=[];" vertex="1" connectable="0" parent="fRoc2haszYNnfgWTT0E0-15">
          <mxGeometry x="-0.5888" relative="1" as="geometry">
            <mxPoint y="8" as="offset" />
          </mxGeometry>
        </mxCell>
        <mxCell id="fRoc2haszYNnfgWTT0E0-19" value="viewing violation details" style="rounded=1;whiteSpace=wrap;html=1;strokeColor=#000000;fillColor=#FFFFFF;" vertex="1" parent="1">
          <mxGeometry x="640" y="295" width="120" height="50" as="geometry" />
        </mxCell>
        <mxCell id="fRoc2haszYNnfgWTT0E0-20" value="" style="endArrow=classic;html=1;rounded=0;entryX=0.5;entryY=1;entryDx=0;entryDy=0;" edge="1" parent="1" target="fRoc2haszYNnfgWTT0E0-32">
          <mxGeometry width="50" height="50" relative="1" as="geometry">
            <mxPoint x="760" y="185" as="sourcePoint" />
            <mxPoint x="210" y="415" as="targetPoint" />
            <Array as="points">
              <mxPoint x="810" y="185" />
              <mxPoint x="810" y="415" />
              <mxPoint x="210" y="415" />
            </Array>
          </mxGeometry>
        </mxCell>
        <mxCell id="fRoc2haszYNnfgWTT0E0-23" value="[no violations]" style="edgeLabel;html=1;align=center;verticalAlign=middle;resizable=0;points=[];" vertex="1" connectable="0" parent="fRoc2haszYNnfgWTT0E0-20">
          <mxGeometry x="-0.1343" y="1" relative="1" as="geometry">
            <mxPoint x="113" y="-241" as="offset" />
          </mxGeometry>
        </mxCell>
        <mxCell id="fRoc2haszYNnfgWTT0E0-26" value="" style="endArrow=classic;html=1;rounded=0;exitX=-0.004;exitY=0.195;exitDx=0;exitDy=0;exitPerimeter=0;" edge="1" parent="1" source="fRoc2haszYNnfgWTT0E0-19">
          <mxGeometry width="50" height="50" relative="1" as="geometry">
            <mxPoint x="530" y="345" as="sourcePoint" />
            <mxPoint x="520" y="305" as="targetPoint" />
          </mxGeometry>
        </mxCell>
        <mxCell id="fRoc2haszYNnfgWTT0E0-30" value="[place complaint]" style="edgeLabel;html=1;align=center;verticalAlign=middle;resizable=0;points=[];" vertex="1" connectable="0" parent="fRoc2haszYNnfgWTT0E0-26">
          <mxGeometry x="0.3876" relative="1" as="geometry">
            <mxPoint x="23" y="-10" as="offset" />
          </mxGeometry>
        </mxCell>
        <mxCell id="fRoc2haszYNnfgWTT0E0-27" value="" style="endArrow=classic;html=1;rounded=0;exitX=-0.004;exitY=0.195;exitDx=0;exitDy=0;exitPerimeter=0;" edge="1" parent="1">
          <mxGeometry width="50" height="50" relative="1" as="geometry">
            <mxPoint x="640" y="335" as="sourcePoint" />
            <mxPoint x="520" y="375" as="targetPoint" />
            <Array as="points">
              <mxPoint x="540" y="335" />
              <mxPoint x="540" y="375" />
            </Array>
          </mxGeometry>
        </mxCell>
        <mxCell id="fRoc2haszYNnfgWTT0E0-31" value="[pay fine]" style="edgeLabel;html=1;align=center;verticalAlign=middle;resizable=0;points=[];" vertex="1" connectable="0" parent="fRoc2haszYNnfgWTT0E0-27">
          <mxGeometry x="-0.2764" y="1" relative="1" as="geometry">
            <mxPoint y="-11" as="offset" />
          </mxGeometry>
        </mxCell>
        <mxCell id="fRoc2haszYNnfgWTT0E0-28" value="complaint placed" style="rounded=1;whiteSpace=wrap;html=1;strokeColor=#000000;fillColor=#FFFFFF;" vertex="1" parent="1">
          <mxGeometry x="400" y="285" width="120" height="50" as="geometry" />
        </mxCell>
        <mxCell id="fRoc2haszYNnfgWTT0E0-29" value="fine payed" style="rounded=1;whiteSpace=wrap;html=1;strokeColor=#000000;fillColor=#FFFFFF;" vertex="1" parent="1">
          <mxGeometry x="400" y="345" width="120" height="50" as="geometry" />
        </mxCell>
        <mxCell id="fRoc2haszYNnfgWTT0E0-46" style="edgeStyle=orthogonalEdgeStyle;rounded=0;orthogonalLoop=1;jettySize=auto;html=1;exitX=0;exitY=0.5;exitDx=0;exitDy=0;entryX=1;entryY=0.5;entryDx=0;entryDy=0;" edge="1" parent="1" source="fRoc2haszYNnfgWTT0E0-32" target="fRoc2haszYNnfgWTT0E0-44">
          <mxGeometry relative="1" as="geometry" />
        </mxCell>
        <mxCell id="fRoc2haszYNnfgWTT0E0-32" value="home page" style="rounded=1;whiteSpace=wrap;html=1;strokeColor=#000000;fillColor=#FFFFFF;" vertex="1" parent="1">
          <mxGeometry x="150" y="310" width="120" height="50" as="geometry" />
        </mxCell>
        <mxCell id="fRoc2haszYNnfgWTT0E0-34" value="" style="endArrow=classic;html=1;rounded=0;exitX=-0.01;exitY=0.593;exitDx=0;exitDy=0;exitPerimeter=0;entryX=1;entryY=0.5;entryDx=0;entryDy=0;" edge="1" parent="1" source="fRoc2haszYNnfgWTT0E0-28" target="fRoc2haszYNnfgWTT0E0-32">
          <mxGeometry width="50" height="50" relative="1" as="geometry">
            <mxPoint x="400" y="310" as="sourcePoint" />
            <mxPoint x="270" y="325" as="targetPoint" />
            <Array as="points">
              <mxPoint x="330" y="315" />
              <mxPoint x="290" y="315" />
              <mxPoint x="290" y="335" />
            </Array>
          </mxGeometry>
        </mxCell>
        <mxCell id="fRoc2haszYNnfgWTT0E0-36" value="[return to home page]" style="edgeLabel;html=1;align=center;verticalAlign=middle;resizable=0;points=[];" vertex="1" connectable="0" parent="fRoc2haszYNnfgWTT0E0-34">
          <mxGeometry x="-0.25" relative="1" as="geometry">
            <mxPoint y="-10" as="offset" />
          </mxGeometry>
        </mxCell>
        <mxCell id="fRoc2haszYNnfgWTT0E0-35" value="" style="endArrow=classic;html=1;rounded=0;exitX=-0.016;exitY=0.407;exitDx=0;exitDy=0;exitPerimeter=0;" edge="1" parent="1" source="fRoc2haszYNnfgWTT0E0-29">
          <mxGeometry width="50" height="50" relative="1" as="geometry">
            <mxPoint x="330" y="365" as="sourcePoint" />
            <mxPoint x="270" y="345" as="targetPoint" />
            <Array as="points">
              <mxPoint x="290" y="365" />
              <mxPoint x="290" y="345" />
            </Array>
          </mxGeometry>
        </mxCell>
        <mxCell id="fRoc2haszYNnfgWTT0E0-37" value="[return to home page]" style="edgeLabel;html=1;align=center;verticalAlign=middle;resizable=0;points=[];" vertex="1" connectable="0" parent="1">
          <mxGeometry x="350.0006857986986" y="354.9996186042217" as="geometry">
            <mxPoint x="-7" y="2" as="offset" />
          </mxGeometry>
        </mxCell>
        <mxCell id="fRoc2haszYNnfgWTT0E0-44" value="" style="ellipse;html=1;shape=endState;fillColor=#000000;strokeColor=#000000;" vertex="1" parent="1">
          <mxGeometry x="70" y="320" width="30" height="30" as="geometry" />
        </mxCell>
      </root>
    </mxGraphModel>
  </diagram>
  <diagram id="siV5poKvYHx-7XxYmPiU" name="Page-2">
    <mxGraphModel dx="934" dy="506" grid="1" gridSize="10" guides="1" tooltips="1" connect="1" arrows="1" fold="1" page="1" pageScale="1" pageWidth="850" pageHeight="1100" math="0" shadow="0">
      <root>
        <mxCell id="0" />
        <mxCell id="1" parent="0" />
        <mxCell id="j0-5fjYTV6vIs_cNOh5p-1" value="" style="ellipse;whiteSpace=wrap;html=1;aspect=fixed;strokeColor=#000000;fillColor=#000000;" vertex="1" parent="1">
          <mxGeometry x="55" y="245" width="20" height="20" as="geometry" />
        </mxCell>
        <mxCell id="j0-5fjYTV6vIs_cNOh5p-2" value="" style="endArrow=classic;html=1;rounded=0;exitX=1;exitY=0.5;exitDx=0;exitDy=0;" edge="1" parent="1" source="j0-5fjYTV6vIs_cNOh5p-1">
          <mxGeometry width="50" height="50" relative="1" as="geometry">
            <mxPoint x="85" y="225" as="sourcePoint" />
            <mxPoint x="165" y="255" as="targetPoint" />
          </mxGeometry>
        </mxCell>
        <mxCell id="j0-5fjYTV6vIs_cNOh5p-3" value="logging in" style="rounded=1;whiteSpace=wrap;html=1;strokeColor=#000000;fillColor=#FFFFFF;" vertex="1" parent="1">
          <mxGeometry x="165" y="230" width="120" height="50" as="geometry" />
        </mxCell>
        <mxCell id="j0-5fjYTV6vIs_cNOh5p-4" value="" style="endArrow=classic;html=1;rounded=0;" edge="1" parent="1">
          <mxGeometry width="50" height="50" relative="1" as="geometry">
            <mxPoint x="285" y="255" as="sourcePoint" />
            <mxPoint x="405" y="255" as="targetPoint" />
          </mxGeometry>
        </mxCell>
        <mxCell id="j0-5fjYTV6vIs_cNOh5p-5" value="logged in successfully" style="edgeLabel;html=1;align=center;verticalAlign=middle;resizable=0;points=[];" vertex="1" connectable="0" parent="j0-5fjYTV6vIs_cNOh5p-4">
          <mxGeometry x="-0.1889" y="-2" relative="1" as="geometry">
            <mxPoint x="6" y="-12" as="offset" />
          </mxGeometry>
        </mxCell>
        <mxCell id="j0-5fjYTV6vIs_cNOh5p-6" value="viewing violations" style="rounded=1;whiteSpace=wrap;html=1;strokeColor=#000000;fillColor=#FFFFFF;" vertex="1" parent="1">
          <mxGeometry x="405" y="235" width="120" height="50" as="geometry" />
        </mxCell>
        <mxCell id="j0-5fjYTV6vIs_cNOh5p-7" value="violations listed" style="rounded=1;whiteSpace=wrap;html=1;strokeColor=#000000;fillColor=#FFFFFF;" vertex="1" parent="1">
          <mxGeometry x="645" y="230" width="120" height="50" as="geometry" />
        </mxCell>
        <mxCell id="j0-5fjYTV6vIs_cNOh5p-8" value="" style="endArrow=classic;html=1;rounded=0;exitX=1;exitY=0.5;exitDx=0;exitDy=0;" edge="1" parent="1">
          <mxGeometry width="50" height="50" relative="1" as="geometry">
            <mxPoint x="525" y="254.5" as="sourcePoint" />
            <mxPoint x="645" y="254.5" as="targetPoint" />
          </mxGeometry>
        </mxCell>
        <mxCell id="j0-5fjYTV6vIs_cNOh5p-9" value="request records" style="edgeLabel;html=1;align=center;verticalAlign=middle;resizable=0;points=[];" vertex="1" connectable="0" parent="j0-5fjYTV6vIs_cNOh5p-8">
          <mxGeometry x="-0.1889" y="-2" relative="1" as="geometry">
            <mxPoint x="1" y="-11" as="offset" />
          </mxGeometry>
        </mxCell>
        <mxCell id="j0-5fjYTV6vIs_cNOh5p-10" value="" style="endArrow=classic;html=1;rounded=0;entryX=0.5;entryY=0;entryDx=0;entryDy=0;exitX=0.5;exitY=1;exitDx=0;exitDy=0;" edge="1" parent="1" target="j0-5fjYTV6vIs_cNOh5p-12">
          <mxGeometry width="50" height="50" relative="1" as="geometry">
            <mxPoint x="705" y="280" as="sourcePoint" />
            <mxPoint x="705" y="345" as="targetPoint" />
            <Array as="points">
              <mxPoint x="705" y="315" />
            </Array>
          </mxGeometry>
        </mxCell>
        <mxCell id="j0-5fjYTV6vIs_cNOh5p-11" value="[violations available]" style="edgeLabel;html=1;align=center;verticalAlign=middle;resizable=0;points=[];" vertex="1" connectable="0" parent="j0-5fjYTV6vIs_cNOh5p-10">
          <mxGeometry x="-0.5888" relative="1" as="geometry">
            <mxPoint y="8" as="offset" />
          </mxGeometry>
        </mxCell>
        <mxCell id="j0-5fjYTV6vIs_cNOh5p-12" value="selecting violations" style="rounded=1;whiteSpace=wrap;html=1;strokeColor=#000000;fillColor=#FFFFFF;" vertex="1" parent="1">
          <mxGeometry x="645" y="365" width="120" height="50" as="geometry" />
        </mxCell>
        <mxCell id="j0-5fjYTV6vIs_cNOh5p-13" value="" style="endArrow=classic;html=1;rounded=0;entryX=0.5;entryY=1;entryDx=0;entryDy=0;" edge="1" parent="1" target="j0-5fjYTV6vIs_cNOh5p-22">
          <mxGeometry width="50" height="50" relative="1" as="geometry">
            <mxPoint x="765" y="255" as="sourcePoint" />
            <mxPoint x="215" y="485" as="targetPoint" />
            <Array as="points">
              <mxPoint x="815" y="255" />
              <mxPoint x="815" y="485" />
              <mxPoint x="215" y="485" />
            </Array>
          </mxGeometry>
        </mxCell>
        <mxCell id="j0-5fjYTV6vIs_cNOh5p-14" value="[no violations]" style="edgeLabel;html=1;align=center;verticalAlign=middle;resizable=0;points=[];" vertex="1" connectable="0" parent="j0-5fjYTV6vIs_cNOh5p-13">
          <mxGeometry x="-0.1343" y="1" relative="1" as="geometry">
            <mxPoint x="113" y="-241" as="offset" />
          </mxGeometry>
        </mxCell>
        <mxCell id="j0-5fjYTV6vIs_cNOh5p-15" value="" style="endArrow=classic;html=1;rounded=0;exitX=-0.004;exitY=0.195;exitDx=0;exitDy=0;exitPerimeter=0;" edge="1" parent="1" source="j0-5fjYTV6vIs_cNOh5p-12">
          <mxGeometry width="50" height="50" relative="1" as="geometry">
            <mxPoint x="535" y="415" as="sourcePoint" />
            <mxPoint x="525" y="375" as="targetPoint" />
          </mxGeometry>
        </mxCell>
        <mxCell id="j0-5fjYTV6vIs_cNOh5p-16" value="[remove violation]" style="edgeLabel;html=1;align=center;verticalAlign=middle;resizable=0;points=[];" vertex="1" connectable="0" parent="j0-5fjYTV6vIs_cNOh5p-15">
          <mxGeometry x="0.3876" relative="1" as="geometry">
            <mxPoint x="23" y="-10" as="offset" />
          </mxGeometry>
        </mxCell>
        <mxCell id="j0-5fjYTV6vIs_cNOh5p-17" value="" style="endArrow=classic;html=1;rounded=0;exitX=-0.004;exitY=0.195;exitDx=0;exitDy=0;exitPerimeter=0;entryX=1;entryY=0.75;entryDx=0;entryDy=0;" edge="1" parent="1" target="j0-5fjYTV6vIs_cNOh5p-22">
          <mxGeometry width="50" height="50" relative="1" as="geometry">
            <mxPoint x="645" y="405" as="sourcePoint" />
            <mxPoint x="525" y="445" as="targetPoint" />
            <Array as="points">
              <mxPoint x="550" y="405" />
              <mxPoint x="550" y="420" />
            </Array>
          </mxGeometry>
        </mxCell>
        <mxCell id="j0-5fjYTV6vIs_cNOh5p-18" value="[keep violation]" style="edgeLabel;html=1;align=center;verticalAlign=middle;resizable=0;points=[];" vertex="1" connectable="0" parent="j0-5fjYTV6vIs_cNOh5p-17">
          <mxGeometry x="-0.2764" y="1" relative="1" as="geometry">
            <mxPoint x="79" y="-6" as="offset" />
          </mxGeometry>
        </mxCell>
        <mxCell id="j0-5fjYTV6vIs_cNOh5p-19" value="violation removed" style="rounded=1;whiteSpace=wrap;html=1;strokeColor=#000000;fillColor=#FFFFFF;" vertex="1" parent="1">
          <mxGeometry x="405" y="355" width="120" height="50" as="geometry" />
        </mxCell>
        <mxCell id="j0-5fjYTV6vIs_cNOh5p-21" style="edgeStyle=orthogonalEdgeStyle;rounded=0;orthogonalLoop=1;jettySize=auto;html=1;exitX=0;exitY=0.5;exitDx=0;exitDy=0;entryX=1;entryY=0.5;entryDx=0;entryDy=0;" edge="1" parent="1" source="j0-5fjYTV6vIs_cNOh5p-22" target="j0-5fjYTV6vIs_cNOh5p-27">
          <mxGeometry relative="1" as="geometry" />
        </mxCell>
        <mxCell id="j0-5fjYTV6vIs_cNOh5p-22" value="home page" style="rounded=1;whiteSpace=wrap;html=1;strokeColor=#000000;fillColor=#FFFFFF;" vertex="1" parent="1">
          <mxGeometry x="155" y="380" width="120" height="50" as="geometry" />
        </mxCell>
        <mxCell id="j0-5fjYTV6vIs_cNOh5p-23" value="" style="endArrow=classic;html=1;rounded=0;exitX=-0.01;exitY=0.593;exitDx=0;exitDy=0;exitPerimeter=0;entryX=1;entryY=0.5;entryDx=0;entryDy=0;" edge="1" parent="1" source="j0-5fjYTV6vIs_cNOh5p-19" target="j0-5fjYTV6vIs_cNOh5p-22">
          <mxGeometry width="50" height="50" relative="1" as="geometry">
            <mxPoint x="405" y="380" as="sourcePoint" />
            <mxPoint x="275" y="395" as="targetPoint" />
            <Array as="points">
              <mxPoint x="335" y="385" />
              <mxPoint x="295" y="385" />
              <mxPoint x="295" y="405" />
            </Array>
          </mxGeometry>
        </mxCell>
        <mxCell id="j0-5fjYTV6vIs_cNOh5p-24" value="[return to home page]" style="edgeLabel;html=1;align=center;verticalAlign=middle;resizable=0;points=[];" vertex="1" connectable="0" parent="j0-5fjYTV6vIs_cNOh5p-23">
          <mxGeometry x="-0.25" relative="1" as="geometry">
            <mxPoint y="-10" as="offset" />
          </mxGeometry>
        </mxCell>
        <mxCell id="j0-5fjYTV6vIs_cNOh5p-27" value="" style="ellipse;html=1;shape=endState;fillColor=#000000;strokeColor=#000000;" vertex="1" parent="1">
          <mxGeometry x="75" y="390" width="30" height="30" as="geometry" />
        </mxCell>
      </root>
    </mxGraphModel>
  </diagram>
</mxfile>
